<svg width="190" height="50" viewBox="0 0 190 50" fill="none" xmlns="http://www.w3.org/2000/svg">
<rect width="190" height="50" fill="#222222"/>
<path d="M-2160 -739C-2160 -1240.47 -1753.47 -1647 -1252 -1647H9746C10247.5 -1647 10654 -1240.47 10654 -739V7232C10654 7733.47 10247.5 8140 9746 8140H-1252C-1753.47 8140 -2160 7733.47 -2160 7232V-739Z" fill="#2B2B2B"/>
<path d="M-1252 -1646H9746V-1648H-1252V-1646ZM10653 -739V7232H10655V-739H10653ZM9746 8139H-1252V8141H9746V8139ZM-2159 7232V-739H-2161V7232H-2159ZM-1252 8139C-1752.92 8139 -2159 7732.92 -2159 7232H-2161C-2161 7734.03 -1754.03 8141 -1252 8141V8139ZM10653 7232C10653 7732.92 10246.9 8139 9746 8139V8141C10248 8141 10655 7734.03 10655 7232H10653ZM9746 -1646C10246.9 -1646 10653 -1239.92 10653 -739H10655C10655 -1241.03 10248 -1648 9746 -1648V-1646ZM-1252 -1648C-1754.03 -1648 -2161 -1241.03 -2161 -739H-2159C-2159 -1239.92 -1752.92 -1646 -1252 -1646V-1648Z" fill="white" fill-opacity="0.1"/>
<g clip-path="url(#clip0_0_1)">
<rect width="1920" height="6623" transform="translate(-120 -65)" fill="white"/>
<g clip-path="url(#clip1_0_1)">
<g filter="url(#filter0_b_0_1)">
<rect x="-120" y="-25" width="1920" height="100" fill="#FAFFFF" fill-opacity="0.84"/>
</g>
<g clip-path="url(#clip2_0_1)">
<path d="M27.0328 50C25.0837 50 23.1769 49.6578 21.3973 48.9735C19.7448 49.4867 18.05 49.7861 16.3127 49.7861C10.9739 49.7861 6.39774 47.2626 3.43173 42.6861C1.18603 39.2216 0.0419922 35.0299 0.0419922 30.154C0.0419922 25.1925 1.56737 20.6587 4.57576 16.7237C7.83838 12.361 11.6518 10.6501 14.8297 10.1369V8.72541C14.8297 7.57057 14.8297 4.02053 17.711 1.71086C19.8719 0 22.3295 0 23.1346 0H29.8717C32.1597 0 34.2783 0.855432 35.8037 2.39521C37.3714 3.97776 38.1765 6.15911 38.1765 8.85372V39.7776C38.1765 43.0282 36.6935 45.9795 34.1088 47.8186C32.075 49.2729 29.7022 50 27.0328 50Z" fill="#16BAC6"/>
<path d="M54.1933 49.7861C52.4985 49.7861 50.7612 49.4867 49.024 48.8879C48.8121 48.8023 48.6003 48.7595 48.3884 48.674C48.0494 48.8023 47.7105 48.8879 47.3715 49.0162C45.6342 49.5294 43.9394 49.7861 42.3293 49.7861C38.1768 49.7861 34.5752 48.2463 31.8211 45.295C29.1517 42.4293 27.8381 38.6654 27.8381 34.0889V17.8357C27.8381 16.6808 27.8381 14.7561 29.0669 12.9169C29.872 11.7193 31.8211 9.62354 35.6345 9.62354H44.5326C45.5495 9.62354 46.3969 9.75185 47.1596 10.0085C48.0071 9.75185 48.9392 9.62354 49.9985 9.62354H56.3543C59.744 9.62354 61.6507 11.1205 62.6677 12.4037C62.71 12.4465 62.7524 12.532 62.7948 12.5748C64.2778 14.585 64.2778 16.7664 64.2778 17.8357V41.0179C64.2778 44.1402 62.5829 46.9204 59.744 48.4601C58.1339 49.3156 56.2695 49.7861 54.1933 49.7861Z" fill="#16BAC6"/>
<path d="M76.1419 49.8717C74.3199 49.8717 72.5827 49.6151 71.0149 49.1018C70.8878 49.059 70.803 49.0163 70.6759 48.9735C70.5912 49.0163 70.5064 49.0163 70.4217 49.059C68.6845 49.6151 66.9048 49.8717 65.21 49.8717C62.6253 49.8717 60.3796 49.2301 58.5576 48.0325C55.8035 46.1933 54.2357 43.1566 54.2357 39.6921V9.06759C54.2357 7.14287 54.8289 5.26092 55.8882 3.72114C57.4136 1.49702 59.8712 0.213867 62.5406 0.213867H69.2353C71.6505 0.213867 73.9809 1.32593 75.5487 3.20788C76.9046 4.8332 77.5825 6.80069 77.5825 8.93927V10.0513C80.718 10.5646 84.4891 12.2327 87.8788 16.5098C91.0567 20.4876 92.6668 25.0642 92.6668 30.1112C92.6668 36.527 90.972 41.574 87.5822 45.0813C84.6162 48.2036 80.6756 49.8717 76.1419 49.8717Z" fill="#16BAC6"/>
<path d="M89.955 49.658C87.667 49.658 85.5907 48.717 84.023 46.9633C82.7095 45.4663 81.9468 43.4988 81.9468 41.4886V15.0557C81.9468 13.7726 82.2858 12.575 82.9213 11.5485C83.0484 8.98216 84.1077 6.58695 85.9297 4.74777C87.8788 2.78027 90.5059 1.66821 93.26 1.66821C96.0142 1.66821 98.6412 2.7375 100.59 4.74777C102.412 6.58695 103.472 8.98216 103.599 11.5485C104.192 12.575 104.573 13.7726 104.573 15.0557V41.4458C104.573 46.1079 101.184 49.6152 96.7345 49.6152H89.955V49.658Z" fill="#16BAC6"/>
<path d="M120.759 50C118.81 50 116.904 49.6578 115.124 48.9735C113.471 49.4867 111.777 49.7861 110.039 49.7861C104.7 49.7861 100.124 47.2626 97.1583 42.6861C94.9126 39.2216 93.7686 35.0299 93.7686 30.154C93.7686 25.1925 95.2939 20.6587 98.3023 16.7237C101.65 12.361 105.421 10.6501 108.599 10.1369V8.72541C108.599 7.57057 108.599 4.02053 111.48 1.71086C113.641 0 116.098 0 116.904 0H123.641C125.929 0 128.047 0.855432 129.573 2.39521C131.14 3.97776 131.945 6.15911 131.945 8.85372V39.7776C131.945 43.0282 130.462 45.9795 127.878 47.8186C125.844 49.2729 123.471 50 120.759 50Z" fill="#16BAC6"/>
<path d="M140.801 49.9571C135.293 49.9571 130.632 48.3318 126.988 45.124C124.149 42.686 120.759 38.1094 120.759 30.4961C120.759 25.1496 122.878 20.1026 126.861 15.9965C131.945 10.7356 137.242 9.62354 140.801 9.62354C145.716 9.62354 150.292 11.7193 154.402 15.8682C158.64 20.1453 160.801 25.0641 160.801 30.4961C160.801 36.4841 158.64 41.5311 154.614 45.124C150.97 48.3318 146.309 49.9571 140.801 49.9571Z" fill="#16BAC6"/>
<path d="M169.063 49.9571C163.555 49.9571 158.894 48.3318 155.25 45.124C152.411 42.6432 149.021 38.1094 149.021 30.4961C149.021 25.1496 151.14 20.1026 155.123 15.9965C160.207 10.7356 165.504 9.62354 169.063 9.62354C173.978 9.62354 178.554 11.7193 182.664 15.8682C186.901 20.1453 189.062 25.0641 189.062 30.4961C189.062 36.4841 186.901 41.5311 182.876 45.124C179.232 48.3318 174.571 49.9571 169.063 49.9571Z" fill="#16BAC6"/>
<path d="M31.3974 39.7776C31.3974 40.8469 30.9736 41.6596 30.1686 42.2584C29.3635 42.8572 28.3042 43.1566 27.0331 43.1566C25.084 43.1566 23.3044 42.5578 21.6095 41.403C21.3129 41.574 21.0587 41.7451 20.8044 41.8307C19.3638 42.5578 17.8808 42.9 16.313 42.9C13.2199 42.9 10.8047 41.574 9.06749 38.8794C7.54211 36.5698 6.77942 33.6613 6.77942 30.154C6.77942 26.7323 7.83871 23.61 9.91492 20.8726C11.9911 18.1352 14.4911 16.7665 17.33 16.7665C18.813 16.7665 19.6604 16.8093 19.9146 16.9376C20.1689 17.0231 20.296 17.4081 20.296 18.0069V21.2575C20.296 21.6852 20.2112 21.9419 19.9994 22.0702C19.7875 22.1985 19.3638 22.2413 18.6435 22.2413C17.5418 22.2413 16.6096 22.7973 15.7622 23.8666C14.9148 24.9359 14.4911 26.1335 14.4911 27.3739C14.4911 29.213 14.7877 30.5817 15.4232 31.4372C16.0588 32.2926 16.8215 32.7631 17.7537 32.7631C18.7706 32.7631 19.6604 32.3354 20.4231 31.4372C21.1858 30.5817 21.6095 29.4697 21.6095 28.101V8.72546C21.6095 7.78448 21.6943 7.27122 21.9061 7.10014C22.118 6.92905 22.5417 6.84351 23.1349 6.84351H29.872C30.3804 6.84351 30.7618 6.97182 31.016 7.22845C31.2703 7.48508 31.3974 8.04111 31.3974 8.85377V39.7776Z" fill="#EFF0F4"/>
<path d="M57.4983 41.0179C57.4983 41.6167 57.2017 42.0872 56.5661 42.4294C55.9305 42.7716 55.1678 42.9427 54.1933 42.9427C53.2187 42.9427 52.2442 42.7716 51.2273 42.4294C50.2103 42.0872 49.3629 41.6167 48.7273 40.9752C47.668 41.6167 46.5664 42.0872 45.4647 42.4294C44.363 42.7716 43.3038 42.9427 42.3292 42.9427C40.0835 42.9427 38.2191 42.1728 36.7785 40.633C35.3379 39.0932 34.6176 36.9119 34.6176 34.1317V17.8785C34.6176 17.2369 34.6599 16.852 34.7023 16.7664C34.8294 16.5954 35.126 16.5098 35.6345 16.5098H44.5325C44.9562 16.5098 45.2528 16.5526 45.3376 16.6809C45.4647 16.8092 45.5071 17.2369 45.5071 17.8785V29.213C44.4054 29.4268 43.6427 29.6835 43.1766 29.9829C42.1597 30.6244 41.6936 31.651 41.6936 33.1052C41.6936 34.1745 42.0326 35.0299 42.7529 35.6715C43.4732 36.3131 44.2783 36.6552 45.2105 36.6552C46.185 36.6552 46.9901 36.3131 47.7104 35.6715C48.3883 34.9871 48.7273 34.0034 48.7273 32.7202V17.8357C48.7273 17.1942 48.7697 16.8092 48.8544 16.6809C48.9816 16.5526 49.3629 16.467 49.9985 16.467H56.3542C56.9051 16.467 57.244 16.5526 57.3711 16.6809C57.4559 16.8092 57.4983 17.1942 57.4983 17.8357V41.0179Z" fill="#EFF0F4"/>
<path d="M85.8874 30.1113C85.8874 34.7306 84.8281 38.1523 82.7095 40.3337C81.0146 42.1301 78.8113 43.0283 76.0995 43.0283C74.9978 43.0283 73.9809 42.9 73.0487 42.6006C72.1165 42.3012 71.3539 41.8735 70.7607 41.3602C70.2946 41.7879 69.4895 42.2156 68.3878 42.5578C67.2862 42.9 66.1845 43.0711 65.1676 43.0711C63.9388 43.0711 62.9642 42.8144 62.2439 42.3439C61.3965 41.7879 60.9728 40.8897 60.9728 39.7349V9.06764C60.9728 8.55438 61.0999 8.08389 61.3965 7.65618C61.6931 7.27123 62.0321 7.05737 62.5405 7.05737H69.2353C69.659 7.05737 70.0403 7.22846 70.3793 7.6134C70.6759 7.99835 70.8454 8.42606 70.8454 8.93932V28.0155C70.8454 29.4269 71.2267 30.539 71.9471 31.3944C72.6674 32.2498 73.5148 32.6776 74.4894 32.6776C75.4639 32.6776 76.269 32.2071 76.9469 31.3089C77.6249 30.4107 77.9215 29.042 77.9215 27.2456C77.9215 25.8769 77.4978 24.6793 76.6503 23.6528C75.8029 22.6262 74.8283 22.113 73.7267 22.113C73.0911 22.113 72.7098 22.0702 72.4555 22.0274C72.2437 21.9847 72.1165 21.6853 72.1165 21.1292V17.8786C72.1165 17.237 72.2437 16.8521 72.4555 16.7665C72.6674 16.681 73.5148 16.6382 75.0402 16.6382C77.8791 16.6382 80.4214 18.0069 82.5824 20.7871C84.8281 23.5672 85.8874 26.6468 85.8874 30.1113Z" fill="#EFF0F4"/>
<path d="M96.904 11.3346C96.904 12.3183 96.5651 13.1737 95.8447 13.8581C95.1244 14.5852 94.277 14.9274 93.3024 14.9274C92.2855 14.9274 91.4381 14.5852 90.7601 13.9009C90.0398 13.2165 89.7009 12.3611 89.7009 11.3346C89.7009 10.308 90.0398 9.45261 90.7601 8.76826C91.4805 8.04115 92.3279 7.69897 93.3024 7.69897C94.3194 7.69897 95.1668 8.04115 95.8447 8.76826C96.5651 9.45261 96.904 10.308 96.904 11.3346ZM97.8362 41.4458C97.8362 42.344 97.4972 42.7717 96.7769 42.7717H89.9551C89.6161 42.7717 89.3619 42.6434 89.1077 42.3867C88.8534 42.1301 88.7687 41.7879 88.7687 41.4458V15.0557C89.15 15.6545 89.489 16.0822 89.7856 16.3816C90.7601 17.3226 91.9465 17.7503 93.3024 17.7503C94.6583 17.7503 95.8024 17.3226 96.7769 16.4244C97.1159 16.125 97.4549 15.6545 97.8362 15.0557V41.4458Z" fill="#EFF0F4"/>
<path d="M125.124 39.7776C125.124 40.8469 124.7 41.6596 123.895 42.2584C123.09 42.8572 122.03 43.1566 120.759 43.1566C118.81 43.1566 117.031 42.5578 115.336 41.403C115.039 41.574 114.785 41.7451 114.531 41.8307C113.09 42.5578 111.607 42.9 110.039 42.9C106.946 42.9 104.531 41.574 102.794 38.8794C101.268 36.527 100.506 33.6185 100.506 30.1113C100.506 26.6895 101.565 23.5672 103.641 20.8298C105.717 18.0924 108.217 16.7237 111.056 16.7237C112.539 16.7237 113.387 16.7665 113.641 16.8948C113.895 16.9804 114.022 17.3653 114.022 17.9641V21.2148C114.022 21.6425 113.937 21.8991 113.726 22.0274C113.514 22.1557 113.09 22.1985 112.37 22.1985C111.268 22.1985 110.336 22.7545 109.488 23.8238C108.641 24.8931 108.217 26.0907 108.217 27.3311C108.217 29.1703 108.514 30.539 109.149 31.3944C109.785 32.2498 110.548 32.7203 111.48 32.7203C112.497 32.7203 113.387 32.2926 114.149 31.3944C114.912 30.539 115.336 29.4269 115.336 28.0582V8.72546C115.336 7.78448 115.42 7.27122 115.632 7.10014C115.844 6.92905 116.268 6.84351 116.861 6.84351H123.598C124.107 6.84351 124.488 6.97182 124.742 7.22845C124.996 7.48508 125.124 8.04111 125.124 8.85377V39.7776Z" fill="#EFF0F4"/>
<path d="M154.021 30.4961C154.021 34.5167 152.707 37.6818 150.123 39.9487C147.75 42.0445 144.615 43.1138 140.759 43.1138C136.903 43.1138 133.767 42.0445 131.352 39.9487C128.768 37.6818 127.454 34.5594 127.454 30.4961C127.454 26.9033 128.852 23.6527 131.606 20.787C134.403 17.9213 137.411 16.467 140.716 16.467C143.767 16.467 146.691 17.8785 149.53 20.7442C152.538 23.6954 154.021 26.9461 154.021 30.4961ZM146.267 28.9136C146.267 27.6304 145.759 26.3473 144.699 24.9786C143.513 23.4816 142.199 22.7117 140.801 22.7117C139.403 22.7117 138.089 23.4388 136.903 24.9358C135.844 26.2617 135.335 27.5877 135.335 28.9136C135.335 30.3678 135.886 31.5226 137.03 32.4208C138.132 33.3191 139.403 33.7468 140.801 33.7468C142.199 33.7468 143.428 33.3191 144.487 32.5064C145.674 31.5654 146.267 30.3678 146.267 28.9136Z" fill="#EFF0F4"/>
<path d="M182.283 30.4961C182.283 34.5167 180.969 37.6818 178.385 39.9487C176.012 42.0445 172.876 43.1138 169.021 43.1138C165.165 43.1138 162.029 42.0445 159.614 39.9487C157.029 37.6818 155.716 34.5594 155.716 30.4961C155.716 26.9033 157.114 23.6527 159.868 20.787C162.665 17.9213 165.673 16.467 168.978 16.467C172.029 16.467 174.953 17.8785 177.792 20.7442C180.8 23.6954 182.283 26.9461 182.283 30.4961ZM174.529 28.9136C174.529 27.6304 174.02 26.3473 172.961 24.9786C171.775 23.4816 170.461 22.7117 169.063 22.7117C167.665 22.7117 166.351 23.4388 165.165 24.9358C164.106 26.2617 163.597 27.5877 163.597 28.9136C163.597 30.3678 164.148 31.5226 165.292 32.4208C166.394 33.3191 167.665 33.7468 169.063 33.7468C170.461 33.7468 171.69 33.3191 172.749 32.5064C173.936 31.5654 174.529 30.3678 174.529 28.9136Z" fill="#EFF0F4"/>
</g>
</g>
</g>
<defs>
<filter id="filter0_b_0_1" x="-152" y="-57" width="1984" height="164" filterUnits="userSpaceOnUse" color-interpolation-filters="sRGB">
<feFlood flood-opacity="0" result="BackgroundImageFix"/>
<feGaussianBlur in="BackgroundImageFix" stdDeviation="16"/>
<feComposite in2="SourceAlpha" operator="in" result="effect1_backgroundBlur_0_1"/>
<feBlend mode="normal" in="SourceGraphic" in2="effect1_backgroundBlur_0_1" result="shape"/>
</filter>
<clipPath id="clip0_0_1">
<rect width="1920" height="6623" fill="white" transform="translate(-120 -65)"/>
</clipPath>
<clipPath id="clip1_0_1">
<rect width="1920" height="140" fill="white" transform="translate(-120 -65)"/>
</clipPath>
<clipPath id="clip2_0_1">
<rect width="189.062" height="50" fill="white"/>
</clipPath>
</defs>
</svg>
